<svg width="194" height="41" viewBox="0 0 194 41" fill="none" xmlns="http://www.w3.org/2000/svg">
<path d="M30 32H11.4098C11.4098 32 12.2652 28.2816 9.80328 25.5385C7.58151 23.063 2 23.4615 2 23.4615V11C2 11 7.76673 11.7836 9.80346 9.38461C12.1894 6.57435 11.4098 2 11.4098 2H30" stroke="#28746E" stroke-width="3"/>
<path d="M36 38H17.4098C17.4098 38 18.2652 34.2816 15.8033 31.5385C13.5815 29.063 8 29.4615 8 29.4615V17C8 17 13.7667 17.7836 15.8035 15.3846C18.1894 12.5744 17.4098 8 17.4098 8H36" stroke="#A6D8D1" stroke-width="3"/>
<path d="M63.0995 15.8377V13.3615H46.2787V15.8377H53.1379V33H56.2402V15.8377H63.0995ZM66.8888 12.6215C65.8358 12.6215 65.0673 13.39 65.0673 14.4146C65.0673 15.4677 65.8358 16.2362 66.8888 16.2362C67.9419 16.2362 68.7388 15.4677 68.7388 14.4146C68.7388 13.39 67.9419 12.6215 66.8888 12.6215ZM68.4542 33V17.8869H65.3235V33H68.4542ZM78.9274 17.4885C74.9713 17.4885 71.6128 20.3631 71.6128 25.5146C71.6128 30.8938 74.6013 33.3985 78.5574 33.3985C82.1151 33.3985 84.7336 31.6054 85.4451 27.9908H82.2574C81.802 30.04 80.5213 31.1215 78.7282 31.1215C76.622 31.1215 74.9143 29.3854 74.9143 25.2869C74.9143 21.5015 76.6505 19.7654 78.842 19.7654C80.692 19.7654 81.9159 20.8185 82.3713 23.1238H85.5305C85.1605 19.7938 82.7413 17.4885 78.9274 17.4885ZM92.9859 26.7954L98.1089 33H102.179L95.2059 24.9738L102.094 17.8869H98.2512L91.6482 25.1731V12.0808H88.5174V33H91.6482V28.2754L92.9859 26.7954ZM117.068 25.0592C117.068 20.79 114.706 17.4885 110.323 17.4885C105.968 17.4885 102.923 20.7046 102.923 25.4862C102.923 30.8369 105.968 33.3985 110.01 33.3985C113.311 33.3985 116.186 31.6908 116.84 28.1046H113.681C113.368 30.0115 111.945 31.1215 110.123 31.1215C108.074 31.1215 106.423 29.9262 106.167 26.3115H117.011C117.068 25.7708 117.068 25.3438 117.068 25.0592ZM110.209 19.7654C112.4 19.7654 113.624 21.3308 113.852 24.12H106.196C106.537 21.2169 108.074 19.7654 110.209 19.7654ZM124.056 20.1923H127.016V18.0008H124.056V14.3862H120.954V18.0008H118.819V20.1923H120.954V28.3892C120.954 29.2431 120.954 29.8977 120.982 30.41C121.125 32.4023 122.149 33.2846 124.511 33.2846C125.28 33.2846 126.02 33.2277 126.817 33.1138V30.9508C124.768 31.15 124.198 30.8369 124.085 29.3569C124.056 28.9585 124.056 28.6169 124.056 28.1046V20.1923ZM139.424 12.9631C134.102 12.9631 129.719 16.4923 129.719 23.3231C129.719 29.9831 133.96 33.3985 139.225 33.3985C144.149 33.3985 147.763 30.9792 148.247 26.2546L148.276 25.97H143.153L143.096 26.2546C142.669 28.4177 141.388 29.6415 139.396 29.6415C137.119 29.6415 135.07 27.9623 135.07 23.01C135.07 18.7692 136.92 16.72 139.367 16.72C141.445 16.72 142.726 17.7162 143.153 19.8223L143.21 20.1069H148.333L148.304 19.8223C147.906 15.9515 145.031 12.9631 139.424 12.9631ZM153.466 11.6254C151.873 11.6254 150.819 12.5931 150.819 14.13C150.819 15.6669 151.873 16.6346 153.466 16.6346C155.06 16.6346 156.113 15.6669 156.113 14.13C156.113 12.5931 155.06 11.6254 153.466 11.6254ZM156.028 33V17.8015H150.905V33H156.028ZM174.673 21.53C174.274 18.8831 172.424 17.4031 169.293 17.4031C167.899 17.4031 166.817 17.7162 165.878 18.2854L164.512 20.1638V17.8015H159.389V33H164.512V25.8277C164.512 22.3838 165.622 20.8754 167.187 20.8754C168.724 20.8754 169.521 21.7292 169.635 23.1808C169.692 23.9492 169.692 24.7746 169.692 25.2585V33H174.815V24.4046C174.815 23.1808 174.787 22.2985 174.673 21.53ZM192.875 25.2015C192.875 21.2738 190.314 17.4031 185.248 17.4031C180.182 17.4031 177.136 21.0177 177.136 25.4577C177.136 30.8085 180.608 33.3985 184.963 33.3985C188.862 33.3985 191.708 31.4631 192.591 28.0192H187.553C187.354 29.1862 186.472 29.9262 185.02 29.9262C183.568 29.9262 182.458 29.2146 182.202 26.6815H192.79C192.847 26.1692 192.875 25.6569 192.875 25.2015ZM184.992 20.8754C186.358 20.8754 187.24 21.7577 187.525 23.5508H182.373C182.715 21.6723 183.654 20.8754 184.992 20.8754Z" fill="#151411"/>
</svg>
